<?xml version="1.0" encoding="UTF-8" standalone="no"?>
<!-- Uploaded to: SVG Repo, www.svgrepo.com, Generator: SVG Repo Mixer Tools -->

<svg
   fill="#000000"
   height="810"
   width="551.93549"
   version="1.1"
   id="Layer_1"
   viewBox="0 0 342.2 502.2"
   xml:space="preserve"
   sodipodi:docname="ruler-svgrepo-com - Copy.svg"
   inkscape:version="1.3 (0e150ed6c4, 2023-07-21)"
   xmlns:inkscape="http://www.inkscape.org/namespaces/inkscape"
   xmlns:sodipodi="http://sodipodi.sourceforge.net/DTD/sodipodi-0.dtd"
   xmlns="http://www.w3.org/2000/svg"
   xmlns:svg="http://www.w3.org/2000/svg"><defs
   id="defs3" /><sodipodi:namedview
   id="namedview3"
   pagecolor="#ffffff"
   bordercolor="#999999"
   borderopacity="1"
   inkscape:showpageshadow="2"
   inkscape:pageopacity="0"
   inkscape:pagecheckerboard="0"
   inkscape:deskcolor="#d1d1d1"
   inkscape:zoom="1.59875"
   inkscape:cx="275.8405"
   inkscape:cy="505.39484"
   inkscape:window-width="1436"
   inkscape:window-height="1501"
   inkscape:window-x="-9"
   inkscape:window-y="0"
   inkscape:window-maximized="0"
   inkscape:current-layer="g1" />&#10;<g
   id="g3"
   style="stroke:#000000;stroke-opacity:1"
   transform="translate(-76.9,3.0999999)">&#10;	<g
   id="g2"
   style="stroke:#000000;stroke-opacity:1">&#10;		<g
   id="g1"
   style="stroke:#000000;stroke-opacity:1">&#10;			<path
   d="M 304,0 V 384 H 80 V 496 H 416 V 0 Z M 96,480 v -80 h 212.688 l 80,80 z M 400,56 h -16 v 16 h 16 v 32 h -32 v 16 h 32 v 32 h -16 v 16 h 16 v 32 h -32 v 16 h 32 v 32 h -16 v 16 h 16 v 32 h -32 v 16 h 32 v 32 h -16 v 16 h 16 v 32 h -32 v 16 h 32 v 60.688 l -80,-80 V 16 h 80 z"
   id="path1"
   style="fill:#ffffff;fill-opacity:1;stroke:#000000;stroke-width:2.48;stroke-dasharray:none;stroke-opacity:1" />&#10;			<polygon
   points="256,448 128,448 128,432 288,432 288,448 272,448 272,464 304,464 304,416 112,416 112,464 256,464 "
   id="polygon1"
   style="fill:#ffffff;fill-opacity:1;stroke:#000000;stroke-width:2.48;stroke-dasharray:none;stroke-opacity:1" />&#10;		</g>&#10;	</g>&#10;</g>&#10;</svg>
