<?xml version="1.0" encoding="iso-8859-1"?>
<!-- Uploaded to: SVG Repo, www.svgrepo.com, Generator: SVG Repo Mixer Tools -->
<svg fill="#000000" height="800px" width="800px" version="1.1" id="Layer_1" xmlns="http://www.w3.org/2000/svg" xmlns:xlink="http://www.w3.org/1999/xlink" 
	 viewBox="0 0 496 496" xml:space="preserve">
<g>
	<g>
		<g>
			<path d="M304,0v384H80v112h336V0H304z M96,480v-80h212.688l80,80H96z M400,56h-16v16h16v32h-32v16h32v32h-16v16h16v32h-32v16h32
				v32h-16v16h16v32h-32v16h32v32h-16v16h16v32h-32v16h32v60.688l-80-80V16h80V56z"/>
			<polygon points="112,464 256,464 256,448 128,448 128,432 288,432 288,448 272,448 272,464 304,464 304,416 112,416 			"/>
		</g>
	</g>
</g>
</svg>